<svg xmlns="http://www.w3.org/2000/svg" width="26" height="45" viewBox="0 0 26 45"><defs><clipPath id="qgz2a"><path fill="#fff" d="M13 0c7.18 0 13 5.82 13 13v19c0 7.18-5.82 13-13 13S0 39.18 0 32V13C0 5.82 5.82 0 13 0z"/></clipPath><clipPath id="qgz2b"><path fill="#fff" d="M13 23a2 2 0 1 1 0 4 2 2 0 0 1 0-4z"/></clipPath><clipPath id="qgz2c"><path fill="#fff" d="M13 10a3 3 0 1 1 0 6 3 3 0 0 1 0-6z"/></clipPath></defs><g><g><g><path fill="none" stroke="#22222b" stroke-miterlimit="20" stroke-width="2" d="M13 0c7.18 0 13 5.82 13 13v19c0 7.18-5.82 13-13 13S0 39.18 0 32V13C0 5.82 5.82 0 13 0z" clip-path="url(&quot;#qgz2a&quot;)"/></g><g opacity=".3"><path fill="none" stroke="#22222b" stroke-miterlimit="20" stroke-width="2" d="M13 23a2 2 0 1 1 0 4 2 2 0 0 1 0-4z" clip-path="url(&quot;#qgz2b&quot;)"/></g><g><path fill="none" stroke="#22222b" stroke-miterlimit="20" stroke-width="2" d="M13 10a3 3 0 1 1 0 6 3 3 0 0 1 0-6z" clip-path="url(&quot;#qgz2c&quot;)"/></g></g></g></svg>